#!OML:ASF H:\Martial Arts Walks\Project 1\Capture day 1\Session 1\male.ASF
:FULLY-SPECIFIED
:DEGREES
2016
root -0.238136 13.851 -31.2511 14.0026 -22.7154 -16.161
lowerback 8.83132 -0.437892 6.03667
upperback -1.85216 0.406782 5.07828
thorax -6.93579 0.050389 1.90774
lowerneck -6.60086 2.87887 -0.981051
upperneck 11.1956 3.60818 3.07744
head 4.35528 1.90124 1.30572
rclavicle 4.03036e-014 -3.10104e-014
rhumerus -79.1429 22.6443 -96.8665
rradius 110.288
rwrist -69.2132
rhand -1.10485 -21.5428
rfingers 7.12502
rthumb 24.5317 -49.9914
lclavicle 4.03036e-014 -3.10104e-014
lhumerus 59.4022 21.0718 91.5713
lradius 13.7485
lwrist -67.4657
lhand -33.3897 36.6537
lfingers 7.12502
lthumb -6.59047 426.531
rfemur 8.25598 -10.5011 17.9255
rtibia 38.5962
rfoot -25.1549 -34.0772
rtoes -28.2941
lfemur -74.2501 28.2726 -9.61529
ltibia 77.6199
lfoot -8.49426 -8.12129
ltoes 4.28231
2017
root -0.238872 13.8461 -31.2497 14.0039 -22.6475 -16.1842
lowerback 8.82406 -0.465056 6.07313
upperback -1.86048 0.375427 5.09457
thorax -6.9411 0.0336452 1.90952
lowerneck -6.65272 2.79395 -1.03652
upperneck 11.3181 3.49177 3.12608
head 4.40191 1.84493 1.3259
rclavicle -5.00937e-014 5.1684e-015
rhumerus -79.1373 22.6592 -96.8774
rradius 110.279
rwrist -69.2013
rhand -1.06268 -21.5304
rfingers 7.12502
rthumb 24.5721 -49.9735
lclavicle -5.00937e-014 5.1684e-015
lhumerus 59.3875 21.0952 91.5593
lradius 13.7553
lwrist -67.4927
lhand -33.3964 36.6503
lfingers 7.12502
lthumb -6.59694 426.528
rfemur 8.27345 -10.5467 17.9607
rtibia 38.625
rfoot -25.1885 -34.095
rtoes -28.3091
lfemur -74.3216 28.2694 -9.6225
ltibia 77.6756
lfoot -8.50644 -8.17086
ltoes 4.31012
2018
root -0.239735 13.8416 -31.2484 14.0049 -22.5815 -16.203
lowerback 8.81454 -0.488648 6.10519
upperback -1.87034 0.348151 5.10903
thorax -6.9467 0.0190339 1.91122
lowerneck -6.70322 2.70185 -1.0895
upperneck 11.4441 3.3653 3.17419
head 4.44982 1.78377 1.3449
rclavicle 2.52953e-014 -2.70347e-014
rhumerus -79.1376 22.6618 -96.8882
rradius 110.272
rwrist -69.2025
rhand -1.02821 -21.5163
rfingers 7.12502
rthumb 24.6052 -49.9549
lclavicle 2.52953e-014 -2.70347e-014
lhumerus 59.374 21.1134 91.5607
lradius 13.7572
lwrist -67.5261
lhand -33.4157 36.6714
lfingers 7.12502
lthumb -6.61555 426.548
rfemur 8.2901 -10.595 17.9905
rtibia 38.6521
rfoot -25.2244 -34.108
rtoes -28.3294
lfemur -74.3904 28.2617 -9.63133
ltibia 77.7293
lfoot -8.51726 -8.21539
ltoes 4.32618
2019
root -0.240667 13.8374 -31.2471 14.0056 -22.5228 -16.2178
lowerback 8.80447 -0.507264 6.13134
upperback -1.8802 0.32669 5.12137
thorax -6.95192 0.00748588 1.91307
lowerneck -6.75159 2.60308 -1.13999
upperneck 11.5713 3.22973 3.21968
head 4.49819 1.71812 1.36206
rclavicle -4.90998e-014 -4.6118e-014
rhumerus -79.1388 22.6526 -96.8977
rradius 110.268
rwrist -69.2133
rhand -1.01302 -21.5094
rfingers 7.12502
rthumb 24.6197 -49.946
lclavicle -4.90998e-014 -4.6118e-014
lhumerus 59.365 21.1282 91.577
lradius 13.7544
lwrist -67.5616
lhand -33.4363 36.6896
lfingers 7.12502
lthumb -6.63546 426.566
rfemur 8.30237 -10.6423 18.014
rtibia 38.6821
rfoot -25.2615 -34.1167
rtoes -28.3701
lfemur -74.4536 28.2544 -9.64096
ltibia 77.7802
lfoot -8.52522 -8.25653
ltoes 4.35246
2020
root -0.241584 13.8337 -31.2458 14.0038 -22.4749 -16.2257
lowerback 8.79475 -0.52056 6.14833
upperback -1.89027 0.311247 5.13158
thorax -6.95746 -0.000775338 1.91688
lowerneck -6.79402 2.49872 -1.1943
upperneck 11.6987 3.08668 3.26709
head 4.5459 1.64873 1.37982
rclavicle -3.79182e-014 -7.91163e-014
rhumerus -79.1419 22.6356 -96.9057
rradius 110.268
rwrist -69.227
rhand -1.01196 -21.5102
rfingers 7.12502
rthumb 24.6207 -49.9467
lclavicle -3.79182e-014 -7.91163e-014
lhumerus 59.3555 21.1394 91.6004
lradius 13.7484
lwrist -67.5878
lhand -33.4542 36.7055
lfingers 7.12502
lthumb -6.6527 426.581
rfemur 8.30996 -10.6862 18.0262
rtibia 38.7176
rfoot -25.3103 -34.1142
rtoes -28.4221
lfemur -74.5085 28.2498 -9.65484
ltibia 77.828
lfoot -8.5328 -8.29125
ltoes 4.37109
2021
root -0.242482 13.8304 -31.2445 14.0003 -22.4389 -16.2261
lowerback 8.78575 -0.530277 6.15225
upperback -1.89961 0.299087 5.14092
thorax -6.96256 -0.00688273 1.92656
lowerneck -6.83771 2.39159 -1.25587
upperneck 11.8297 2.94014 3.31793
head 4.59499 1.57757 1.39956
rclavicle -5.32743e-014 -6.71892e-014
rhumerus -79.1399 22.619 -96.9134
rradius 110.267
rwrist -69.2341
rhand -1.03294 -21.5258
rfingers 7.12502
rthumb 24.6006 -49.965
lclavicle -5.32743e-014 -6.71892e-014
lhumerus 59.3478 21.1538 91.6287
lradius 13.7405
lwrist -67.6073
lhand -33.4684 36.717
lfingers 7.12502
lthumb -6.66636 426.592
rfemur 8.31101 -10.7246 18.0267
rtibia 38.7596
rfoot -25.3651 -34.104
rtoes -28.4875
lfemur -74.556 28.249 -9.67401
ltibia 77.872
lfoot -8.53792 -8.32017
ltoes 4.40102
